<svg xmlns="http://www.w3.org/2000/svg" viewBox="58.35252331332674 58.18639089256783 907.6589266575272 907.6589266575272">
  <style>
    path { fill: #000000; }
    @media (prefers-color-scheme: dark) {
      path { fill: #FFFFFF; }
    }
  </style>
  <path d="M 254.50 690.50 C183.19,680.28 124.16,628.48 105.57,559.81 C100.75,541.97 99.59,532.80 99.61,512.50 C99.62,491.32 101.01,480.64 106.10,462.58 C119.82,413.94 153.77,373.27 200.09,349.97 C245.98,326.88 306.61,326.34 353.00,348.60 C367.18,355.40 392.00,371.86 392.00,374.45 C392.00,374.75 390.39,375.00 388.43,375.00 C383.04,375.00 370.27,379.65 363.79,383.98 L 358.03 387.83 L 350.00 383.00 C335.70,374.41 319.50,368.71 300.15,365.48 C287.50,363.36 260.83,363.89 249.00,366.49 C192.27,378.97 148.15,422.39 135.18,478.50 C121.35,538.34 145.72,600.53 196.52,634.99 C211.01,644.82 231.98,653.69 250.03,657.62 C262.04,660.24 293.87,660.28 306.00,657.68 C324.73,653.68 343.96,645.61 358.23,635.75 C367.56,629.30 396.87,603.70 420.72,581.16 C430.50,571.91 456.49,545.93 478.48,523.42 C546.18,454.12 582.38,418.46 610.37,393.48 C639.84,367.19 645.83,362.47 659.98,354.46 C709.75,326.29 773.08,324.62 824.37,350.12 C868.73,372.18 903.17,412.76 917.07,459.34 C933.38,514.02 923.37,573.63 890.43,617.98 C859.54,659.56 815.07,685.34 764.50,690.98 C725.80,695.30 681.47,684.69 649.50,663.48 C640.15,657.27 631.32,649.90 606.00,627.17 C585.39,608.67 525.97,550.26 526.05,548.58 C526.08,547.98 530.80,542.58 536.54,536.58 L 546.97 525.66 L 576.24 554.58 C613.42,591.33 652.70,626.97 665.93,635.95 C679.41,645.11 698.42,652.99 717.12,657.18 C725.99,659.16 730.26,659.50 746.50,659.50 C767.31,659.50 774.97,658.38 791.32,652.93 C856.49,631.22 899.41,565.16 892.04,497.88 C887.98,460.72 871.81,427.85 845.53,403.25 C826.22,385.18 805.57,374.16 778.00,367.20 C768.36,364.77 765.82,364.55 747.00,364.53 C724.65,364.50 718.11,365.43 700.50,371.15 C680.61,377.61 666.98,385.96 645.58,404.78 C607.05,438.67 584.73,460.29 528.18,518.50 C462.81,585.78 441.98,606.07 401.08,642.32 C379.22,661.69 368.18,669.05 348.06,677.66 C336.39,682.65 321.02,687.16 307.50,689.55 C294.84,691.80 267.03,692.29 254.50,690.50 ZM 277.07 607.75 C276.34,605.89 215.37,460.68 200.38,425.10 C197.97,419.38 196.00,414.54 196.00,414.33 C196.00,414.13 204.85,414.08 215.67,414.23 L 235.34 414.50 L 240.05 426.00 C242.65,432.33 255.91,464.50 269.53,497.50 C283.15,530.50 294.78,558.74 295.37,560.25 C296.39,562.86 298.00,564.01 298.00,562.12 C298.00,560.91 356.40,421.63 359.24,416.07 C362.42,409.84 371.71,400.78 378.17,397.62 C389.72,391.97 403.40,391.83 415.24,397.25 C422.83,400.73 431.15,408.19 467.25,443.89 L 498.99 475.28 L 488.30 486.39 C482.41,492.50 477.35,497.60 477.05,497.73 C476.75,497.86 463.89,485.48 448.47,470.23 C410.54,432.70 402.98,426.00 398.62,426.00 C393.75,426.00 391.54,428.38 387.44,438.00 C385.45,442.67 372.44,473.50 358.52,506.50 C344.60,539.50 329.05,576.29 323.96,588.25 L 314.71 610.00 L 296.33 610.00 C278.20,610.00 277.94,609.97 277.07,607.75 Z" />
</svg>
